<?xml version="1.0" encoding="UTF-8"?>
<svg width="424px" height="313px" viewBox="0 0 424 313" version="1.1" xmlns="http://www.w3.org/2000/svg" xmlns:xlink="http://www.w3.org/1999/xlink">
    <!-- Generator: Sketch 40.3 (33839) - http://www.bohemiancoding.com/sketch -->
    <title>Vaardigheden </title>
    <desc>Created with Sketch.</desc>
    <defs>
        <path d="M45.5,91 C70.6289561,91 91,70.6289561 91,45.5 C91,20.3710439 70.6289561,0 45.5,0 C20.3710439,0 0,20.3710439 0,45.5 C0,70.6289561 20.3710439,91 45.5,91 Z M45.5,85 C67.3152476,85 85,67.3152476 85,45.5 C85,23.6847524 67.3152476,6 45.5,6 C23.6847524,6 6,23.6847524 6,45.5 C6,67.3152476 23.6847524,85 45.5,85 Z" id="path-1"></path>
        <path d="M45.5,91 C70.6289561,91 91,70.6289561 91,45.5 C91,20.3710439 70.6289561,0 45.5,0 C20.3710439,0 0,20.3710439 0,45.5 C0,70.6289561 20.3710439,91 45.5,91 Z M45.5,85 C67.3152476,85 85,67.3152476 85,45.5 C85,23.6847524 67.3152476,6 45.5,6 C23.6847524,6 6,23.6847524 6,45.5 C6,67.3152476 23.6847524,85 45.5,85 Z" id="path-3"></path>
        <path d="M45.5,91 C70.6289561,91 91,70.6289561 91,45.5 C91,20.3710439 70.6289561,0 45.5,0 C20.3710439,0 0,20.3710439 0,45.5 C0,70.6289561 20.3710439,91 45.5,91 Z M45.5,85 C67.3152476,85 85,67.3152476 85,45.5 C85,23.6847524 67.3152476,6 45.5,6 C23.6847524,6 6,23.6847524 6,45.5 C6,67.3152476 23.6847524,85 45.5,85 Z" id="path-5"></path>
        <path d="M45.5,91 C70.6289561,91 91,70.6289561 91,45.5 C91,20.3710439 70.6289561,0 45.5,0 C20.3710439,0 0,20.3710439 0,45.5 C0,70.6289561 20.3710439,91 45.5,91 Z M45.5,85 C67.3152476,85 85,67.3152476 85,45.5 C85,23.6847524 67.3152476,6 45.5,6 C23.6847524,6 6,23.6847524 6,45.5 C6,67.3152476 23.6847524,85 45.5,85 Z" id="path-7"></path>
        <path d="M45.5,91 C70.6289561,91 91,70.6289561 91,45.5 C91,20.3710439 70.6289561,0 45.5,0 C20.3710439,0 0,20.3710439 0,45.5 C0,70.6289561 20.3710439,91 45.5,91 Z M45.5,85 C67.3152476,85 85,67.3152476 85,45.5 C85,23.6847524 67.3152476,6 45.5,6 C23.6847524,6 6,23.6847524 6,45.5 C6,67.3152476 23.6847524,85 45.5,85 Z" id="path-9"></path>
        <path d="M45.5,91 C70.6289561,91 91,70.6289561 91,45.5 C91,20.3710439 70.6289561,0 45.5,0 C20.3710439,0 0,20.3710439 0,45.5 C0,70.6289561 20.3710439,91 45.5,91 Z M45.5,85 C67.3152476,85 85,67.3152476 85,45.5 C85,23.6847524 67.3152476,6 45.5,6 C23.6847524,6 6,23.6847524 6,45.5 C6,67.3152476 23.6847524,85 45.5,85 Z" id="path-11"></path>
        <path d="M45.5,91 C70.6289561,91 91,70.6289561 91,45.5 C91,20.3710439 70.6289561,0 45.5,0 C20.3710439,0 0,20.3710439 0,45.5 C0,70.6289561 20.3710439,91 45.5,91 Z M45.5,85 C67.3152476,85 85,67.3152476 85,45.5 C85,23.6847524 67.3152476,6 45.5,6 C23.6847524,6 6,23.6847524 6,45.5 C6,67.3152476 23.6847524,85 45.5,85 Z" id="path-13"></path>
        <path d="M45.5,91 C70.6289561,91 91,70.6289561 91,45.5 C91,20.3710439 70.6289561,0 45.5,0 C20.3710439,0 0,20.3710439 0,45.5 C0,70.6289561 20.3710439,91 45.5,91 Z M45.5,85 C67.3152476,85 85,67.3152476 85,45.5 C85,23.6847524 67.3152476,6 45.5,6 C23.6847524,6 6,23.6847524 6,45.5 C6,67.3152476 23.6847524,85 45.5,85 Z" id="path-15"></path>
        <path d="M45.5,91 C70.6289561,91 91,70.6289561 91,45.5 C91,20.3710439 70.6289561,0 45.5,0 C20.3710439,0 0,20.3710439 0,45.5 C0,70.6289561 20.3710439,91 45.5,91 Z M45.5,85 C67.3152476,85 85,67.3152476 85,45.5 C85,23.6847524 67.3152476,6 45.5,6 C23.6847524,6 6,23.6847524 6,45.5 C6,67.3152476 23.6847524,85 45.5,85 Z" id="path-17"></path>
        <path d="M45.5,91 C70.6289561,91 91,70.6289561 91,45.5 C91,20.3710439 70.6289561,0 45.5,0 C20.3710439,0 0,20.3710439 0,45.5 C0,70.6289561 20.3710439,91 45.5,91 Z M45.5,85 C67.3152476,85 85,67.3152476 85,45.5 C85,23.6847524 67.3152476,6 45.5,6 C23.6847524,6 6,23.6847524 6,45.5 C6,67.3152476 23.6847524,85 45.5,85 Z" id="path-19"></path>
        <path d="M45.5,91 C70.6289561,91 91,70.6289561 91,45.5 C91,20.3710439 70.6289561,0 45.5,0 C20.3710439,0 0,20.3710439 0,45.5 C0,70.6289561 20.3710439,91 45.5,91 Z M45.5,85 C67.3152476,85 85,67.3152476 85,45.5 C85,23.6847524 67.3152476,6 45.5,6 C23.6847524,6 6,23.6847524 6,45.5 C6,67.3152476 23.6847524,85 45.5,85 Z" id="path-21"></path>
    </defs>
    <g id="Page-1" stroke="none" stroke-width="1" fill="none" fill-rule="evenodd">
        <g id="Desktop_About-2" transform="translate(-498.000000, -250.000000)">
            <g id="Vaardigheden-" transform="translate(498.000000, 250.000000)">
                <g id="Vaardigheden_HTML">
                    <g id="Cirkel">
                        <mask id="mask-2" fill="white">
                            <use xlink:href="#path-1"></use>
                        </mask>
                        <use id="Combined-Shape" fill="#DDE8F0" xlink:href="#path-1"></use>
                        <path d="M47.9492188,-9.4296875 C47.9492188,6.34635417 47.443817,22.1304934 47.9492188,37.8984375 C48.1128482,43.0034839 50.4768587,48.0090981 49.953125,53.0898438 C48.9127284,63.1827419 32.8937013,52.5417447 31.4414063,47.7382813 C24.6124981,25.1516782 44.1766834,69.5020827 23.1640625,49.4051574 C19.3809792,45.7869346 -10.3598246,35.6887859 -15.609375,47.7382812 C-23.5191732,65.893946 -8.42295873,38.8201235 -6.92578125,58.7460938 C-3.73391622,101.2267 61.7369305,122.416971 92.0351563,97.75 C105.756284,86.5790933 107.997083,68.5831745 111.101563,52.1523438 C112.676861,43.8148881 110.978052,41.043876 107.574219,33.8828125 C104.298302,26.9908633 97.3380238,12.4520879 91.5117188,7.23046875 C79.8423715,-3.22776958 67.3182208,-2.38796152 53.796875,-7.546875 L47.9492188,-9.4296875 Z" id="Path-2" fill="#45546A" mask="url(#mask-2)"></path>
                    </g>
                    <text id="HTML" font-family="Montserrat-ExtraLight, Montserrat" font-size="14" font-weight="300" fill="#000000">
                        <tspan x="26.603" y="50">HTML</tspan>
                    </text>
                </g>
                <g id="Vaardigheden_CSS" transform="translate(111.000000, 0.000000)">
                    <g id="Cirkel">
                        <mask id="mask-4" fill="white">
                            <use xlink:href="#path-3"></use>
                        </mask>
                        <use id="Combined-Shape" fill="#DDE8F0" xlink:href="#path-3"></use>
                        <path d="M47.9492187,-9.4296875 C47.9492187,6.34635417 47.443817,22.1304934 47.9492187,37.8984375 C48.1128482,43.0034839 50.4768587,48.0090981 49.953125,53.0898437 C48.9127284,63.1827419 32.8937013,52.5417447 31.4414062,47.7382812 C24.6124981,25.1516782 73.0039062,71.7734375 47.9492187,71.7734375 C42.4272585,71.7734375 46.9058004,89.8059734 41.65625,101.855469 C33.7464518,120.011133 35.1010429,109.273825 53.796875,105.949219 C80.75,101.15625 61.7369305,122.416971 92.0351562,97.75 C105.756284,86.5790933 107.997083,68.5831745 111.101562,52.1523437 C112.676861,43.8148881 110.978052,41.043876 107.574219,33.8828125 C104.298302,26.9908633 97.3380238,12.4520879 91.5117187,7.23046875 C79.8423715,-3.22776958 67.3182208,-2.38796152 53.796875,-7.546875 L47.9492187,-9.4296875 Z" id="Path-2" fill="#45546A" mask="url(#mask-4)"></path>
                    </g>
                    <text id="CSS" font-family="Montserrat-ExtraLight, Montserrat" font-size="14" font-weight="300" fill="#000000">
                        <tspan x="31.693" y="51">CSS</tspan>
                    </text>
                </g>
                <g id="Vaardigheden_Javascript" transform="translate(222.000000, 0.000000)">
                    <g id="Cirkel">
                        <mask id="mask-6" fill="white">
                            <use xlink:href="#path-5"></use>
                        </mask>
                        <use id="Combined-Shape" fill="#DDE8F0" xlink:href="#path-5"></use>
                        <path d="M47.9492187,-9.4296875 C47.9492187,6.34635417 47.443817,22.1304934 47.9492187,37.8984375 C48.1128482,43.0034839 50.4768587,48.0090981 49.953125,53.0898437 C48.9127284,63.1827419 32.8937013,52.5417447 31.4414062,47.7382812 C24.6124981,25.1516782 96.3921566,37.8984375 71.3374691,37.8984375 C65.8155088,37.8984375 116.351113,25.8489422 111.101562,37.8984375 C103.191764,56.0541022 52.641637,110.965232 71.3374691,107.640625 C98.2905941,102.847656 61.7369305,122.416971 92.0351562,97.75 C105.756284,86.5790933 107.997083,68.5831745 111.101562,52.1523437 C112.676861,43.8148881 110.978052,41.043876 107.574219,33.8828125 C104.298302,26.9908633 97.3380238,12.4520879 91.5117187,7.23046875 C79.8423715,-3.22776958 67.3182208,-2.38796152 53.796875,-7.546875 L47.9492187,-9.4296875 Z" id="Path-2" fill="#45546A" mask="url(#mask-6)"></path>
                    </g>
                    <text id="Javascript" font-family="Montserrat-ExtraLight, Montserrat" font-size="14" font-weight="300" fill="#000000">
                        <tspan x="14.282" y="50">Javascript</tspan>
                    </text>
                </g>
                <g id="Vaardigheden_Bootstrap" transform="translate(333.000000, 0.000000)">
                    <g id="Cirkel">
                        <mask id="mask-8" fill="white">
                            <use xlink:href="#path-7"></use>
                        </mask>
                        <use id="Combined-Shape" fill="#DDE8F0" xlink:href="#path-7"></use>
                        <path d="M47.9492187,-9.4296875 C47.9492187,6.34635417 47.443817,22.1304934 47.9492187,37.8984375 C48.1128482,43.0034839 50.4768587,48.0090981 49.953125,53.0898438 C48.9127284,63.1827419 32.8937013,52.5417447 31.4414062,47.7382813 C24.6124981,25.1516782 84.2304687,30.1445312 59.1757812,30.1445312 C53.653821,30.1445312 111.108925,-29.1315266 105.859375,-17.0820312 C97.9495768,1.07363349 98.8119804,55.4769504 117.507813,52.1523438 C144.460938,47.359375 61.7369305,122.416971 92.0351562,97.75 C105.756284,86.5790933 107.997083,68.5831745 111.101562,52.1523438 C112.676861,43.8148881 120.911646,14.3915322 117.507813,7.23046875 C114.231896,0.338519597 97.3380238,12.4520879 91.5117187,7.23046875 C79.8423715,-3.22776958 67.3182208,-2.38796152 53.796875,-7.546875 L47.9492187,-9.4296875 Z" id="Path-2" fill="#45546A" mask="url(#mask-8)"></path>
                    </g>
                    <text id="Bootstrap" font-family="Montserrat-ExtraLight, Montserrat" font-size="14" font-weight="300" fill="#000000">
                        <tspan x="14.198" y="50">Bootstrap</tspan>
                    </text>
                </g>
                <g id="Vaardigheden_Carwrap" transform="translate(0.000000, 111.000000)">
                    <g id="Cirkel">
                        <mask id="mask-10" fill="white">
                            <use xlink:href="#path-9"></use>
                        </mask>
                        <use id="Combined-Shape" fill="#DDE8F0" xlink:href="#path-9"></use>
                        <path d="M47.9492187,-9.4296875 C47.9492187,6.34635417 47.443817,22.1304934 47.9492187,37.8984375 C48.1128482,43.0034839 50.4768587,48.0090981 49.953125,53.0898437 C48.9127284,63.1827419 32.8937013,52.5417447 31.4414062,47.7382812 C24.6124981,25.1516782 91.5585937,47.7382812 66.5039062,47.7382812 C60.981946,47.7382812 112.823769,35.6887859 107.574219,47.7382812 C99.6644206,65.893946 35.1010429,109.273825 53.796875,105.949219 C80.75,101.15625 61.7369305,122.416971 92.0351562,97.75 C105.756284,86.5790933 107.997083,68.5831745 111.101562,52.1523437 C112.676861,43.8148881 110.978052,41.043876 107.574219,33.8828125 C104.298302,26.9908633 97.3380238,12.4520879 91.5117187,7.23046875 C79.8423715,-3.22776958 67.3182208,-2.38796152 53.796875,-7.546875 L47.9492187,-9.4296875 Z" id="Path-2" fill="#45546A" mask="url(#mask-10)"></path>
                    </g>
                    <text id="Carwrap" font-family="Montserrat-ExtraLight, Montserrat" font-size="14" font-weight="300" fill="#000000">
                        <tspan x="17.629" y="50">Carwrap</tspan>
                    </text>
                </g>
                <g id="Vaardigheden_Autobelettering" transform="translate(111.000000, 111.000000)">
                    <g id="Cirkel">
                        <mask id="mask-12" fill="white">
                            <use xlink:href="#path-11"></use>
                        </mask>
                        <use id="Combined-Shape" fill="#DDE8F0" xlink:href="#path-11"></use>
                        <path d="M47.9492187,-9.4296875 C47.9492187,6.34635417 47.443817,22.1304934 47.9492187,37.8984375 C48.1128482,43.0034839 50.4768587,48.0090981 49.953125,53.0898437 C48.9127284,63.1827419 32.8937013,52.5417447 31.4414062,47.7382812 C24.6124981,25.1516782 41.8476562,53.0898437 16.7929687,53.0898437 C11.2710085,53.0898437 -2.25044963,69.2512859 -7.5,81.3007812 C-15.4097982,99.456446 35.1010429,109.273825 53.796875,105.949219 C80.75,101.15625 61.7369305,122.416971 92.0351562,97.75 C105.756284,86.5790933 107.997083,68.5831745 111.101562,52.1523437 C112.676861,43.8148881 110.978052,41.043876 107.574219,33.8828125 C104.298302,26.9908633 97.3380238,12.4520879 91.5117187,7.23046875 C79.8423715,-3.22776958 67.3182208,-2.38796152 53.796875,-7.546875 L47.9492187,-9.4296875 Z" id="Path-2" fill="#45546A" mask="url(#mask-12)"></path>
                    </g>
                    <text id="Auto--belettering" font-family="Montserrat-ExtraLight, Montserrat" font-size="13" font-weight="300" fill="#000000">
                        <tspan x="28.827" y="41">Auto-</tspan>
                        <tspan x="11.4655" y="57">belettering</tspan>
                    </text>
                </g>
                <g id="Vaardigheden_Raambelettering" transform="translate(222.000000, 111.000000)">
                    <g id="Cirkel">
                        <mask id="mask-14" fill="white">
                            <use xlink:href="#path-13"></use>
                        </mask>
                        <use id="Combined-Shape" fill="#DDE8F0" xlink:href="#path-13"></use>
                        <path d="M47.9492187,-9.4296875 C47.9492187,6.34635417 47.443817,22.1304934 47.9492187,37.8984375 C48.1128482,43.0034839 50.4768587,48.0090981 49.953125,53.0898437 C48.9127284,63.1827419 32.8937013,52.5417447 31.4414062,47.7382812 C24.6124981,25.1516782 41.8476562,53.0898437 16.7929687,53.0898437 C11.2710085,53.0898437 -2.25044963,69.2512859 -7.5,81.3007812 C-15.4097982,99.456446 35.1010429,109.273825 53.796875,105.949219 C80.75,101.15625 61.7369305,122.416971 92.0351562,97.75 C105.756284,86.5790933 107.997083,68.5831745 111.101562,52.1523437 C112.676861,43.8148881 110.978052,41.043876 107.574219,33.8828125 C104.298302,26.9908633 97.3380238,12.4520879 91.5117187,7.23046875 C79.8423715,-3.22776958 67.3182208,-2.38796152 53.796875,-7.546875 L47.9492187,-9.4296875 Z" id="Path-2" fill="#45546A" mask="url(#mask-14)"></path>
                    </g>
                    <text id="Raam--belettering" font-family="Montserrat-ExtraLight, Montserrat" font-size="13" font-weight="300" fill="#000000">
                        <tspan x="24.81" y="41">Raam-</tspan>
                        <tspan x="11.4655" y="57">belettering</tspan>
                    </text>
                </g>
                <g id="Vaardigheden_Drukwerk" transform="translate(333.000000, 111.000000)">
                    <g id="Cirkel">
                        <mask id="mask-16" fill="white">
                            <use xlink:href="#path-15"></use>
                        </mask>
                        <use id="Combined-Shape" fill="#DDE8F0" xlink:href="#path-15"></use>
                        <path d="M47.9492187,-9.4296875 C47.9492187,6.34635417 47.443817,22.1304934 47.9492187,37.8984375 C48.1128482,43.0034839 50.4768587,48.0090981 49.953125,53.0898437 C48.9127284,63.1827419 32.8937013,52.5417447 31.4414062,47.7382812 C24.6124981,25.1516782 56.4960937,33.8828125 31.4414062,33.8828125 C25.919446,33.8828125 -12.4066996,10.4505047 -17.65625,22.5 C-25.5660482,40.6556647 -1.90286336,113.953513 16.7929687,110.628906 C43.7460937,105.835937 61.7369305,122.416971 92.0351562,97.75 C105.756284,86.5790933 107.997083,68.5831745 111.101562,52.1523437 C112.676861,43.8148881 110.978052,41.043876 107.574219,33.8828125 C104.298302,26.9908633 97.3380238,12.4520879 91.5117187,7.23046875 C79.8423715,-3.22776958 67.3182208,-2.38796152 53.796875,-7.546875 L47.9492187,-9.4296875 Z" id="Path-2" fill="#45546A" mask="url(#mask-16)"></path>
                    </g>
                    <text id="Drukwerk-Ontwerpen" font-family="Montserrat-ExtraLight, Montserrat" font-size="13" font-weight="300" fill="#000000">
                        <tspan x="15.801" y="41">Drukwerk</tspan>
                        <tspan x="10.2305" y="57">Ontwerpen</tspan>
                    </text>
                </g>
                <g id="Vaardigheden_Logo" transform="translate(0.000000, 222.000000)">
                    <g id="Cirkel">
                        <mask id="mask-18" fill="white">
                            <use xlink:href="#path-17"></use>
                        </mask>
                        <use id="Combined-Shape" fill="#DDE8F0" xlink:href="#path-17"></use>
                        <path d="M47.9492187,-9.4296875 C47.9492187,6.34635417 47.443817,22.1304934 47.9492187,37.8984375 C48.1128482,43.0034839 50.4768587,48.0090981 49.953125,53.0898437 C48.9127284,63.1827419 32.8937013,52.5417447 31.4414062,47.7382812 C24.6124981,25.1516782 47.3164063,37.8984375 22.2617188,37.8984375 C16.7397585,37.8984375 -30.7504496,25.8489422 -36,37.8984375 C-43.9097982,56.0541022 35.1010429,109.273825 53.796875,105.949219 C80.75,101.15625 61.7369305,122.416971 92.0351562,97.75 C105.756284,86.5790933 107.997083,68.5831745 111.101562,52.1523437 C112.676861,43.8148881 110.978052,41.043876 107.574219,33.8828125 C104.298302,26.9908633 97.3380238,12.4520879 91.5117187,7.23046875 C79.8423715,-3.22776958 67.3182208,-2.38796152 53.796875,-7.546875 L47.9492187,-9.4296875 Z" id="Path-2" fill="#45546A" mask="url(#mask-18)"></path>
                    </g>
                    <text id="Logo-Ontwerpen" font-family="Montserrat-ExtraLight, Montserrat" font-size="13" font-weight="300" fill="#000000">
                        <tspan x="29.7055" y="40">Logo</tspan>
                        <tspan x="9.2305" y="56">Ontwerpen</tspan>
                    </text>
                </g>
                <g id="Vaardigheden_Opmaak_Printwerk" transform="translate(111.000000, 222.000000)">
                    <g id="Cirkel">
                        <mask id="mask-20" fill="white">
                            <use xlink:href="#path-19"></use>
                        </mask>
                        <use id="Combined-Shape" fill="#DDE8F0" xlink:href="#path-19"></use>
                        <path d="M47.9492187,-9.4296875 C47.9492187,6.34635417 47.443817,22.1304934 47.9492187,37.8984375 C48.1128482,43.0034839 50.4768587,48.0090981 49.953125,53.0898437 C48.9127284,63.1827419 32.8937013,52.5417447 31.4414062,47.7382812 C24.6124981,25.1516782 42.546875,52.1523437 17.4921875,52.1523437 C11.9702272,52.1523437 -8.90279338,68.5442547 -14.1523438,80.59375 C-22.0621419,98.7494147 35.1010429,109.273825 53.796875,105.949219 C80.75,101.15625 61.7369305,122.416971 92.0351562,97.75 C105.756284,86.5790933 107.997083,68.5831745 111.101562,52.1523437 C112.676861,43.8148881 110.978052,41.043876 107.574219,33.8828125 C104.298302,26.9908633 97.3380238,12.4520879 91.5117187,7.23046875 C79.8423715,-3.22776958 67.3182208,-2.38796152 53.796875,-7.546875 L47.9492187,-9.4296875 Z" id="Path-2" fill="#45546A" mask="url(#mask-20)"></path>
                    </g>
                    <text id="Opmaak-Printwerk" font-family="Montserrat-ExtraLight, Montserrat" font-size="13" font-weight="300" fill="#000000">
                        <tspan x="18.5895" y="43">Opmaak</tspan>
                        <tspan x="16.139" y="59">Printwerk</tspan>
                    </text>
                </g>
                <g id="Vaardigheden_Technische_Tekening" transform="translate(222.000000, 222.000000)">
                    <g id="Cirkel">
                        <mask id="mask-22" fill="white">
                            <use xlink:href="#path-21"></use>
                        </mask>
                        <use id="Combined-Shape" fill="#DDE8F0" xlink:href="#path-21"></use>
                        <path d="M47.9492187,-9.4296875 C47.9492187,6.34635417 47.443817,22.1304934 47.9492187,37.8984375 C48.1128482,43.0034839 50.4768587,48.0090981 49.953125,53.0898437 C48.9127284,63.1827419 32.8937013,52.5417447 31.4414062,47.7382812 C24.6124981,25.1516782 84.7734375,63.5078125 59.71875,63.5078125 C54.1967897,63.5078125 92.2222066,85.7005047 86.9726563,97.75 C79.0628581,115.905665 35.1010429,109.273825 53.796875,105.949219 C80.75,101.15625 61.7369305,122.416971 92.0351562,97.75 C105.756284,86.5790933 107.997083,68.5831745 111.101562,52.1523437 C112.676861,43.8148881 110.978052,41.043876 107.574219,33.8828125 C104.298302,26.9908633 97.3380238,12.4520879 91.5117187,7.23046875 C79.8423715,-3.22776958 67.3182208,-2.38796152 53.796875,-7.546875 L47.9492187,-9.4296875 Z" id="Path-2" fill="#45546A" mask="url(#mask-22)"></path>
                    </g>
                    <text id="Technische-Tekening" font-family="Montserrat-ExtraLight, Montserrat" font-size="13" font-weight="300" fill="#000000">
                        <tspan x="10.9065" y="43">Technische</tspan>
                        <tspan x="17.751" y="59">Tekening</tspan>
                    </text>
                </g>
            </g>
        </g>
    </g>
</svg>