<svg id="Layer_1" data-name="Layer 1" xmlns="http://www.w3.org/2000/svg" viewBox="0 0 112.04 112.04"><defs><style>.cls-1{fill:#46546a;}.cls-2{fill:#fff;}</style></defs><title>insta</title><circle id="_Path_" data-name="&lt;Path&gt;" class="cls-1" cx="56.02" cy="56.02" r="56.02"/><path class="cls-2" d="M120.51,60.34H79.8A12.83,12.83,0,0,0,67,73.16v40.71A12.84,12.84,0,0,0,79.8,126.7h40.71a12.84,12.84,0,0,0,12.83-12.82V73.16A12.84,12.84,0,0,0,120.51,60.34ZM124.19,68h1.46V79.23l-11.21,0,0-11.25ZM90.69,86.71a11.64,11.64,0,0,1,18.94,0,11.9,11.9,0,0,1,.7,1.11,11.56,11.56,0,0,1,1.51,5.69,11.68,11.68,0,0,1-23.36,0A11.56,11.56,0,0,1,90,87.82,12.21,12.21,0,0,1,90.69,86.71Zm36.18,27.16a6.37,6.37,0,0,1-6.36,6.36H79.8a6.36,6.36,0,0,1-6.36-6.36V86.71h9.9A18.37,18.37,0,0,0,82,93.52a18.14,18.14,0,1,0,36.29,0,17.91,17.91,0,0,0-.7-4.94,18.37,18.37,0,0,0-.64-1.87h9.91v27.16Z" transform="translate(-44.14 -37.5)"/></svg>