<?xml version="1.0" encoding="utf-8"?>
<!-- Generator: Adobe Illustrator 21.0.2, SVG Export Plug-In . SVG Version: 6.00 Build 0)  -->
<svg version="1.1" id="Layer_1" xmlns="http://www.w3.org/2000/svg" xmlns:xlink="http://www.w3.org/1999/xlink" x="0px" y="0px"
	 viewBox="0 0 178 174" style="enable-background:new 0 0 178 174;" xml:space="preserve">
<style type="text/css">
	.st0{fill:#45546A;}
</style>
<g>
	<path class="st0" d="M41.9,118.9c3.3-1.6,7-3.2,10.9-4.8c3.9-1.6,8.1-3.2,12.4-4.8c4.3-1.6,8.6-3.3,12.8-5.2
		c1.4-3.9,2.8-8.2,4.2-12.8c1.4-4.6,2.8-9.3,4.4-14.1c1.5-4.8,3.2-9.6,4.9-14.3c1.7-4.8,3.7-9.3,5.8-13.6c2.2-4.3,4.5-8.2,7.1-11.9
		c1.2-1.7,2.5-3.2,3.9-4.7c-2-0.7-4.1-1.2-6.1-1.6c-3.7,1.1-7.5,2.5-11.4,4.1c-4.2,1.7-8.3,3.6-12.3,5.8c-4,2.2-7.5,4.6-10.4,7.3
		c-3,2.7-5.2,5.6-6.6,8.8c-1.5,3.2-1.8,6.6-1,10.2c0.5,2.4,1.7,4.3,3.6,5.8c1.9,1.5,4.3,1.9,7.4,1.2c2.1-0.5,4-1.3,5.7-2.4
		c1.8-1.2,3.2-2.5,4.4-4.1c1.2-1.6,2-3.4,2.5-5.3c0.5-1.9,0.5-3.8,0.1-5.8c-0.3-1.2-0.8-2.5-1.5-3.9l1.1-0.4c0.4,0.6,0.8,1.3,1.1,2
		c0.3,0.7,0.5,1.4,0.6,2c0.5,2.1,0.4,4.2-0.1,6.3c-0.6,2.1-1.5,4-2.8,5.7c-1.3,1.7-2.8,3.2-4.7,4.4c-1.9,1.3-3.9,2.1-6.1,2.6
		c-4.4,1-8,0.7-11-0.9c-2.9-1.6-4.8-4.1-5.6-7.5c-0.8-3.7-0.4-7.2,1.2-10.4c1.6-3.2,4.1-6.2,7.3-9c3.2-2.7,6.9-5.2,11.2-7.5
		c4.3-2.2,8.6-4.2,13-5.9c3.9-1.5,7.6-2.8,11.2-3.9c-3-0.5-6.2-0.7-9.3-0.7c-33.2,0-60.1,26.9-60.1,60.1c0,11.4,3.2,22,8.6,31.1
		C39.2,120.3,40.5,119.6,41.9,118.9z"/>
	<path class="st0" d="M73,116.7c1.8-4.3,3.2-8,4.3-11.1c-3.9,1.7-7.7,3.4-11.6,4.8c-3.9,1.5-7.6,2.9-11.1,4.3
		c-3.5,1.4-6.7,2.9-9.7,4.4c-2.2,1.1-4.2,2.3-5.9,3.6c4.7,7.1,10.8,13.2,17.9,17.8c0.2-0.2,0.5-0.4,0.7-0.6
		c3.4-3.1,6.3-6.7,8.8-10.8C69.1,125.1,71.2,121,73,116.7z"/>
	<path class="st0" d="M109.6,33.3c-1.8,2.8-3.6,6.3-5.3,10.3c-1.9,4.4-3.7,9.3-5.5,14.7c-1.8,5.3-3.5,10.6-5.1,15.9
		C92,79.4,90.4,84.4,89,89.1c-1.5,4.7-2.8,8.6-4.1,11.6l0.3,0.2c3.8-2.2,7-4.2,9.6-6.2c2.6-2,5-4.1,7-6.4c2-2.3,3.8-4.8,5.3-7.5
		c1.1-2,2.2-4.3,3.3-6.7c0.1-0.6,0.2-1.1,0.3-1.7c0.8-4,2.4-7.5,4.7-10.4c2.3-2.9,5.4-5.1,9.3-6.5c3.5-1.3,6.6-1.5,9.4-0.7
		c2.8,0.9,4.7,2.7,5.7,5.4c0.8,2.1,0.6,4-0.5,5.6c-1.1,1.6-2.7,2.8-4.7,3.6c0.3-1.4,0.4-2.7,0.4-3.9c0-1.2-0.3-2.6-0.9-4.2
		c-0.9-2.4-2.2-3.9-4-4.5c-1.8-0.6-3.7-0.6-5.6,0.1c-2.6,1-4.6,2.3-6,4c-1.4,1.7-2.4,3.7-3,5.9c-0.6,2.2-0.8,4.7-0.7,7.4
		c0.1,2.7,0.5,5.4,1,8.2c0.5,2.8,1.2,5.7,2,8.6c0.8,2.9,1.7,5.8,2.5,8.6c2.1,7,3,13,2.7,18.2c-0.3,5.2-1.4,9.6-3.2,13.3
		c-1.9,3.7-4.3,6.7-7.4,9.1c-3.1,2.4-6.5,4.2-10.2,5.6c-3,1.1-5.9,1.6-8.7,1.6c-2.8,0-5.4-0.6-7.8-1.6c-2.4-1-4.5-2.5-6.3-4.4
		c-1.8-1.9-3.2-4.3-4.3-7.1c-0.9-2.3-1-4.4-0.6-6.3c0.5-1.9,1.6-3.2,3.3-3.8c1.5-0.6,2.8-0.6,3.8-0.2c1,0.4,1.7,1.2,2.2,2.3
		c0.4,1,0.4,1.9,0.1,2.9c-0.3,0.9-1,1.6-2,1.9c-0.3,0.1-0.7,0.2-1.2,0.2c-0.5,0-0.9-0.1-1.2-0.4c-0.4,1.1-0.6,2.2-0.4,3.4
		c0.2,1.2,0.5,2.4,1,3.7c0.6,1.7,1.7,3.2,3.1,4.5c1.4,1.3,3.1,2.2,5.1,2.8c2,0.6,4.2,0.9,6.7,0.8c2.4-0.1,5-0.6,7.6-1.6
		c4.5-1.7,7.9-4.1,10.2-7.3c2.3-3.2,3.9-6.7,4.6-10.7c0.7-3.9,0.8-8,0.2-12.2c-0.6-4.2-1.5-8.1-2.8-11.8c-2.1-5.9-3.5-11.4-4.2-16.5
		c-0.4-3.1-0.5-6-0.4-8.7c-0.7,1.5-1.4,2.8-2.1,4.1c-1.6,2.9-3.5,5.5-5.6,7.9c-2.2,2.4-4.7,4.7-7.7,6.8c-3,2.2-6.5,4.4-10.7,6.6
		c-1.7,4.7-3.7,9.4-6,14.2c-2.2,4.8-4.8,9.3-7.8,13.4c-3,4.1-6.4,7.7-10.2,10.8c-0.3,0.2-0.6,0.5-1,0.7c8.9,5.3,19.4,8.3,30.5,8.3
		c33.2,0,60.1-26.9,60.1-60.1C149.6,63.8,132.9,41.5,109.6,33.3z"/>
</g>
</svg>
