<svg id="Layer_1" data-name="Layer 1" xmlns="http://www.w3.org/2000/svg" viewBox="0 0 112.04 112.04"><defs><style>.cls-1{fill:#46546a;}.cls-2{fill:#fff;}</style></defs><title>mail</title><g id="_Group_" data-name="&lt;Group&gt;"><circle class="cls-1" cx="56.02" cy="56.02" r="56.02"/></g><path class="cls-2" d="M583.7,182.29l-8.5-7.43-24.28,20.81A4.94,4.94,0,0,0,554.3,197h58.79a4.93,4.93,0,0,0,3.38-1.33l-24.27-20.81Z" transform="translate(-527.68 -116.46)"/><path class="cls-2" d="M616.48,149.29a4.94,4.94,0,0,0-3.39-1.33H554.3a4.89,4.89,0,0,0-3.38,1.34l32.77,28.09Z" transform="translate(-527.68 -116.46)"/><polygon class="cls-2" points="21.69 35.8 21.69 76.55 45.39 56.41 21.69 35.8"/><polygon class="cls-2" points="66.65 56.41 90.35 76.55 90.35 35.79 66.65 56.41"/></svg>