<svg id="Layer_1" data-name="Layer 1" xmlns="http://www.w3.org/2000/svg" viewBox="0 0 112.04 112.04"><defs><style>.cls-1{fill:#46546a;}.cls-2{fill:#fff;}</style></defs><title>phone</title><g id="_Group_" data-name="&lt;Group&gt;"><circle class="cls-1" cx="56.02" cy="56.02" r="56.02"/></g><path class="cls-2" d="M612.59,187.9a2.82,2.82,0,0,1-.87,2.47l-8.22,8.16a4.62,4.62,0,0,1-1.45,1.05,6,6,0,0,1-1.76.56l-.37,0c-.2,0-.47,0-.8,0a28.41,28.41,0,0,1-3.8-.4,28.81,28.81,0,0,1-6.43-2,53.92,53.92,0,0,1-8.62-4.73A64.35,64.35,0,0,1,570,184.44a67.68,67.68,0,0,1-7.17-8.16,58.2,58.2,0,0,1-4.57-7.2,38.84,38.84,0,0,1-2.6-6,31.67,31.67,0,0,1-1.17-4.64,15.24,15.24,0,0,1-.25-3.06c0-.74.06-1.15.06-1.24a6,6,0,0,1,.56-1.76,4.63,4.63,0,0,1,1.05-1.45l8.22-8.22a2.72,2.72,0,0,1,2-.87,2.3,2.3,0,0,1,1.42.46,4.28,4.28,0,0,1,1.05,1.14L575.2,156a3,3,0,0,1,.31,2.16,3.85,3.85,0,0,1-1.05,2l-3,3a1,1,0,0,0-.22.4,1.51,1.51,0,0,0-.09.46,11.15,11.15,0,0,0,1.11,3,27.19,27.19,0,0,0,2.29,3.62,40.11,40.11,0,0,0,4.39,4.91,40.68,40.68,0,0,0,4.94,4.42,28.54,28.54,0,0,0,3.62,2.32,9.54,9.54,0,0,0,2.23.9l.77.16a1.47,1.47,0,0,0,.4-.09,1,1,0,0,0,.4-.22l3.52-3.59a3.79,3.79,0,0,1,2.6-1,3.23,3.23,0,0,1,1.67.37h.06l11.93,7A3.11,3.11,0,0,1,612.59,187.9Z" transform="translate(-527.68 -116.46)"/></svg>