<svg id="Layer_1" data-name="Layer 1" xmlns="http://www.w3.org/2000/svg" viewBox="0 0 112.04 112.04"><defs><style>.cls-1{fill:#46546a;}.cls-2{fill:#fff;}</style></defs><title>pinterest</title><g id="_Group_" data-name="&lt;Group&gt;"><circle class="cls-1" cx="56.02" cy="56.02" r="56.02"/></g><path id="_Path_" data-name="&lt;Path&gt;" class="cls-2" d="M586,136.71c-18.71,0-28.15,13-28.15,23.81a21.58,21.58,0,0,0,.73,5.72c1.11,4.06,3.51,7.33,7.33,8.85a1.37,1.37,0,0,0,2-1c.18-.67.61-2.35.81-3.06a1.81,1.81,0,0,0-.57-2.12A10,10,0,0,1,566,165a12.87,12.87,0,0,1-.46-3.54c0-9.63,7.45-18.26,19.39-18.26,10.58,0,16.39,6.25,16.39,14.6a33.49,33.49,0,0,1-.73,7c-1.65,7.64-6,13.23-11.75,13.23-4.12,0-7.21-3.3-6.22-7.34.57-2.3,1.38-4.69,2.08-6.93a24.39,24.39,0,0,0,1.4-6.59c0-3.12-1.73-5.72-5.31-5.72-4.21,0-7.6,4.21-7.6,9.86a15.62,15.62,0,0,0,.27,2.85,12.85,12.85,0,0,0,1,3.19l-5.07,20.77c-1.5,6.17-.23,13.72-.12,14.48a.53.53,0,0,0,.94.22c.39-.49,5.4-6.48,7.11-12.47.48-1.7,2.77-10.48,2.77-10.48,1.37,2.53,5.37,4.75,9.62,4.75,10.31,0,17.92-7.41,20.39-18.24a35.29,35.29,0,0,0,.86-7.88C610.95,147.23,601,136.71,586,136.71Z" transform="translate(-527.2 -116)"/></svg>