<svg id="Layer_1" data-name="Layer 1" xmlns="http://www.w3.org/2000/svg" viewBox="0 0 112.04 112.04"><defs><style>.cls-1{fill:#46546a;}.cls-2{fill:#fff;}</style></defs><title>place</title><g id="_Group_" data-name="&lt;Group&gt;"><circle class="cls-1" cx="56.02" cy="56.02" r="56.02"/></g><path class="cls-2" d="M584.37,136.63a24.58,24.58,0,0,0-24.58,24.58c0,24.58,24.58,54.07,24.58,54.07s24.58-29.49,24.58-54.07A24.58,24.58,0,0,0,584.37,136.63Zm0,39.63a15.05,15.05,0,1,1,15.05-15.05A15.05,15.05,0,0,1,584.37,176.26Zm-9.52-15.05a9.52,9.52,0,1,0,9.52-9.52A9.52,9.52,0,0,0,574.84,161.21Z" transform="translate(-527.68 -116.46)"/></svg>