<?xml version="1.0" encoding="UTF-8"?>
<svg width="313px" height="313px" viewBox="0 0 313 313" version="1.1" xmlns="http://www.w3.org/2000/svg" xmlns:xlink="http://www.w3.org/1999/xlink">
    <!-- Generator: Sketch 40.3 (33839) - http://www.bohemiancoding.com/sketch -->
    <title>Programma's</title>
    <desc>Created with Sketch.</desc>
    <defs>
        <path d="M45.5,91 C70.6289561,91 91,70.6289561 91,45.5 C91,20.3710439 70.6289561,0 45.5,0 C20.3710439,0 0,20.3710439 0,45.5 C0,70.6289561 20.3710439,91 45.5,91 Z M45.5,85 C67.3152476,85 85,67.3152476 85,45.5 C85,23.6847524 67.3152476,6 45.5,6 C23.6847524,6 6,23.6847524 6,45.5 C6,67.3152476 23.6847524,85 45.5,85 Z" id="path-1"></path>
        <path d="M45.5,91 C70.6289561,91 91,70.6289561 91,45.5 C91,20.3710439 70.6289561,0 45.5,0 C20.3710439,0 0,20.3710439 0,45.5 C0,70.6289561 20.3710439,91 45.5,91 Z M45.5,85 C67.3152476,85 85,67.3152476 85,45.5 C85,23.6847524 67.3152476,6 45.5,6 C23.6847524,6 6,23.6847524 6,45.5 C6,67.3152476 23.6847524,85 45.5,85 Z" id="path-3"></path>
        <path d="M45.5,91 C70.6289561,91 91,70.6289561 91,45.5 C91,20.3710439 70.6289561,0 45.5,0 C20.3710439,0 0,20.3710439 0,45.5 C0,70.6289561 20.3710439,91 45.5,91 Z M45.5,85 C67.3152476,85 85,67.3152476 85,45.5 C85,23.6847524 67.3152476,6 45.5,6 C23.6847524,6 6,23.6847524 6,45.5 C6,67.3152476 23.6847524,85 45.5,85 Z" id="path-5"></path>
        <path d="M45.5,91 C70.6289561,91 91,70.6289561 91,45.5 C91,20.3710439 70.6289561,0 45.5,0 C20.3710439,0 0,20.3710439 0,45.5 C0,70.6289561 20.3710439,91 45.5,91 Z M45.5,85 C67.3152476,85 85,67.3152476 85,45.5 C85,23.6847524 67.3152476,6 45.5,6 C23.6847524,6 6,23.6847524 6,45.5 C6,67.3152476 23.6847524,85 45.5,85 Z" id="path-7"></path>
        <path d="M45.5,91 C70.6289561,91 91,70.6289561 91,45.5 C91,20.3710439 70.6289561,0 45.5,0 C20.3710439,0 0,20.3710439 0,45.5 C0,70.6289561 20.3710439,91 45.5,91 Z M45.5,85 C67.3152476,85 85,67.3152476 85,45.5 C85,23.6847524 67.3152476,6 45.5,6 C23.6847524,6 6,23.6847524 6,45.5 C6,67.3152476 23.6847524,85 45.5,85 Z" id="path-9"></path>
        <path d="M45.5,91 C70.6289561,91 91,70.6289561 91,45.5 C91,20.3710439 70.6289561,0 45.5,0 C20.3710439,0 0,20.3710439 0,45.5 C0,70.6289561 20.3710439,91 45.5,91 Z M45.5,85 C67.3152476,85 85,67.3152476 85,45.5 C85,23.6847524 67.3152476,6 45.5,6 C23.6847524,6 6,23.6847524 6,45.5 C6,67.3152476 23.6847524,85 45.5,85 Z" id="path-11"></path>
        <path d="M45.5,91 C70.6289561,91 91,70.6289561 91,45.5 C91,20.3710439 70.6289561,0 45.5,0 C20.3710439,0 0,20.3710439 0,45.5 C0,70.6289561 20.3710439,91 45.5,91 Z M45.5,85 C67.3152476,85 85,67.3152476 85,45.5 C85,23.6847524 67.3152476,6 45.5,6 C23.6847524,6 6,23.6847524 6,45.5 C6,67.3152476 23.6847524,85 45.5,85 Z" id="path-13"></path>
        <path d="M45.5,91 C70.6289561,91 91,70.6289561 91,45.5 C91,20.3710439 70.6289561,0 45.5,0 C20.3710439,0 0,20.3710439 0,45.5 C0,70.6289561 20.3710439,91 45.5,91 Z M45.5,85 C67.3152476,85 85,67.3152476 85,45.5 C85,23.6847524 67.3152476,6 45.5,6 C23.6847524,6 6,23.6847524 6,45.5 C6,67.3152476 23.6847524,85 45.5,85 Z" id="path-15"></path>
    </defs>
    <g id="Page-1" stroke="none" stroke-width="1" fill="none" fill-rule="evenodd">
        <g id="Desktop_About-2" transform="translate(-102.000000, -252.000000)">
            <g id="Programma's" transform="translate(102.000000, 252.000000)">
                <g id="Programma_Illustrator">
                    <g id="Cirkel">
                        <mask id="mask-2" fill="white">
                            <use xlink:href="#path-1"></use>
                        </mask>
                        <use id="Combined-Shape" fill="#DDE8F0" xlink:href="#path-1"></use>
                        <path d="M47.9492187,-9.4296875 C47.9492187,6.34635417 47.443817,22.1304934 47.9492187,37.8984375 C48.1128482,43.0034839 50.4768587,48.0090981 49.953125,53.0898438 C48.9127284,63.1827419 32.8937013,52.5417447 31.4414062,47.7382813 C24.6124981,25.1516782 44.4266834,30.2219253 23.4140625,10.125 C19.6309792,6.50677727 4.88626912,-7.88933909 -0.36328125,4.16015625 C-8.27307945,22.315821 -8.42295873,38.8201235 -6.92578125,58.7460938 C-3.73391622,101.2267 61.7369305,122.416971 92.0351562,97.75 C105.756284,86.5790933 107.997083,68.5831745 111.101562,52.1523438 C112.676861,43.8148881 110.978052,41.043876 107.574219,33.8828125 C104.298302,26.9908633 97.3380238,12.4520879 91.5117187,7.23046875 C79.8423715,-3.22776958 67.3182208,-2.38796152 53.796875,-7.546875 L47.9492187,-9.4296875 Z" id="Path-2" fill="#45546A" mask="url(#mask-2)"></path>
                    </g>
                    <text id="Adobe-Illustrator" font-family="Montserrat-ExtraLight, Montserrat" font-size="14" font-weight="300" fill="#000000">
                        <tspan x="23.502" y="43">Adobe</tspan>
                        <tspan x="14.752" y="61">Illustrator</tspan>
                    </text>
                </g>
                <g id="Programma_Photoshop" transform="translate(111.000000, 0.000000)">
                    <g id="Cirkel">
                        <mask id="mask-4" fill="white">
                            <use xlink:href="#path-3"></use>
                        </mask>
                        <use id="Combined-Shape" fill="#DDE8F0" xlink:href="#path-3"></use>
                        <path d="M47.9492187,-9.4296875 C47.9492187,6.34635417 47.443817,22.1304934 47.9492187,37.8984375 C48.1128482,43.0034839 50.4768587,48.0090981 49.953125,53.0898437 C48.9127284,63.1827419 32.8937013,52.5417447 31.4414062,47.7382812 C24.6124981,25.1516782 73.0039062,71.7734375 47.9492187,71.7734375 C42.4272585,71.7734375 46.9058004,89.8059734 41.65625,101.855469 C33.7464518,120.011133 35.1010429,109.273825 53.796875,105.949219 C80.75,101.15625 61.7369305,122.416971 92.0351562,97.75 C105.756284,86.5790933 107.997083,68.5831745 111.101562,52.1523437 C112.676861,43.8148881 110.978052,41.043876 107.574219,33.8828125 C104.298302,26.9908633 97.3380238,12.4520879 91.5117187,7.23046875 C79.8423715,-3.22776958 67.3182208,-2.38796152 53.796875,-7.546875 L47.9492187,-9.4296875 Z" id="Path-2" fill="#45546A" mask="url(#mask-4)"></path>
                    </g>
                    <text id="Adobe-Photoshop" font-family="Montserrat-ExtraLight, Montserrat" font-size="14" font-weight="300" fill="#000000">
                        <tspan x="23.502" y="41">Adobe</tspan>
                        <tspan x="9.089" y="59">Photoshop</tspan>
                    </text>
                </g>
                <g id="Programma_Indesign" transform="translate(222.000000, 0.000000)">
                    <g id="Cirkel">
                        <mask id="mask-6" fill="white">
                            <use xlink:href="#path-5"></use>
                        </mask>
                        <use id="Combined-Shape" fill="#DDE8F0" xlink:href="#path-5"></use>
                        <path d="M47.9492187,-9.4296875 C47.9492187,6.34635417 47.443817,22.1304934 47.9492187,37.8984375 C48.1128482,43.0034839 50.4768587,48.0090981 49.953125,53.0898437 C48.9127284,63.1827419 32.8937013,52.5417447 31.4414062,47.7382812 C24.6124981,25.1516782 78.8515625,64.7734375 53.796875,64.7734375 C48.2749147,64.7734375 82.1167379,85.7005047 76.8671875,97.75 C68.9573893,115.905665 35.1010429,109.273825 53.796875,105.949219 C80.75,101.15625 61.7369305,122.416971 92.0351562,97.75 C105.756284,86.5790933 107.997083,68.5831745 111.101562,52.1523437 C112.676861,43.8148881 110.978052,41.043876 107.574219,33.8828125 C104.298302,26.9908633 97.3380238,12.4520879 91.5117187,7.23046875 C79.8423715,-3.22776958 67.3182208,-2.38796152 53.796875,-7.546875 L47.9492187,-9.4296875 Z" id="Path-2" fill="#45546A" mask="url(#mask-6)"></path>
                    </g>
                    <text id="Adobe-Indesign" font-family="Montserrat-ExtraLight, Montserrat" font-size="14" font-weight="300" fill="#000000">
                        <tspan x="23.502" y="41">Adobe</tspan>
                        <tspan x="16.873" y="59">Indesign</tspan>
                    </text>
                </g>
                <g id="Programma_Solidworks" transform="translate(0.000000, 111.000000)">
                    <g id="Cirkel">
                        <mask id="mask-8" fill="white">
                            <use xlink:href="#path-7"></use>
                        </mask>
                        <use id="Combined-Shape" fill="#DDE8F0" xlink:href="#path-7"></use>
                        <path d="M47.9492187,-9.4296875 C47.9492187,6.34635417 47.443817,22.1304934 47.9492187,37.8984375 C48.1128482,43.0034839 50.4768587,48.0090981 49.953125,53.0898437 C48.9127284,63.1827419 32.8937013,52.5417447 31.4414062,47.7382812 C24.6124981,25.1516782 91.5585937,47.7382812 66.5039062,47.7382812 C60.981946,47.7382812 112.823769,35.6887859 107.574219,47.7382812 C99.6644206,65.893946 35.1010429,109.273825 53.796875,105.949219 C80.75,101.15625 61.7369305,122.416971 92.0351562,97.75 C105.756284,86.5790933 107.997083,68.5831745 111.101562,52.1523437 C112.676861,43.8148881 110.978052,41.043876 107.574219,33.8828125 C104.298302,26.9908633 97.3380238,12.4520879 91.5117187,7.23046875 C79.8423715,-3.22776958 67.3182208,-2.38796152 53.796875,-7.546875 L47.9492187,-9.4296875 Z" id="Path-2" fill="#45546A" mask="url(#mask-8)"></path>
                    </g>
                    <text id="Solidworks" font-family="Montserrat-ExtraLight, Montserrat" font-size="14" font-weight="300" fill="#000000">
                        <tspan x="9.88" y="51">Solidworks</tspan>
                    </text>
                </g>
                <g id="Programma_Composer" transform="translate(111.000000, 111.000000)">
                    <g id="Cirkel">
                        <mask id="mask-10" fill="white">
                            <use xlink:href="#path-9"></use>
                        </mask>
                        <use id="Combined-Shape" fill="#DDE8F0" xlink:href="#path-9"></use>
                        <path d="M47.9492187,-9.4296875 C47.9492187,6.34635417 47.443817,22.1304934 47.9492187,37.8984375 C48.1128482,43.0034839 50.4768587,48.0090981 49.953125,53.0898437 C48.9127284,63.1827419 32.8937013,52.5417447 31.4414062,47.7382812 C24.6124981,25.1516782 41.8476562,53.0898437 16.7929687,53.0898437 C11.2710085,53.0898437 -2.25044963,69.2512859 -7.5,81.3007812 C-15.4097982,99.456446 35.1010429,109.273825 53.796875,105.949219 C80.75,101.15625 61.7369305,122.416971 92.0351562,97.75 C105.756284,86.5790933 107.997083,68.5831745 111.101562,52.1523437 C112.676861,43.8148881 110.978052,41.043876 107.574219,33.8828125 C104.298302,26.9908633 97.3380238,12.4520879 91.5117187,7.23046875 C79.8423715,-3.22776958 67.3182208,-2.38796152 53.796875,-7.546875 L47.9492187,-9.4296875 Z" id="Path-2" fill="#45546A" mask="url(#mask-10)"></path>
                    </g>
                    <text id="Composer" font-family="Montserrat-ExtraLight, Montserrat" font-size="14" font-weight="300" fill="#000000">
                        <tspan x="11.028" y="51">Composer</tspan>
                    </text>
                </g>
                <g id="Programma_Sketch" transform="translate(0.000000, 222.000000)">
                    <g id="Cirkel">
                        <mask id="mask-12" fill="white">
                            <use xlink:href="#path-11"></use>
                        </mask>
                        <use id="Combined-Shape" fill="#DDE8F0" xlink:href="#path-11"></use>
                        <path d="M47.9492187,-9.4296875 C47.9492187,6.34635417 47.443817,22.1304934 47.9492187,37.8984375 C48.1128482,43.0034839 50.4768587,48.0090981 49.953125,53.0898437 C48.9127284,63.1827419 32.8937013,52.5417447 31.4414062,47.7382812 C24.6124981,25.1516782 73.0039062,65.09375 47.9492187,65.09375 C42.4272585,65.09375 16.4526754,98.5559734 11.203125,110.605469 C3.2933268,128.761133 35.1010429,109.273825 53.796875,105.949219 C80.75,101.15625 61.7369305,122.416971 92.0351562,97.75 C105.756284,86.5790933 107.997083,68.5831745 111.101562,52.1523437 C112.676861,43.8148881 110.978052,41.043876 107.574219,33.8828125 C104.298302,26.9908633 97.3380238,12.4520879 91.5117187,7.23046875 C79.8423715,-3.22776958 67.3182208,-2.38796152 53.796875,-7.546875 L47.9492187,-9.4296875 Z" id="Path-2" fill="#45546A" mask="url(#mask-12)"></path>
                    </g>
                    <text id="Sketch" font-family="Montserrat-ExtraLight, Montserrat" font-size="14" font-weight="300" fill="#000000">
                        <tspan x="22.942" y="51">Sketch</tspan>
                    </text>
                </g>
                <g id="Programma_Axure" transform="translate(111.000000, 222.000000)">
                    <g id="Cirkel">
                        <mask id="mask-14" fill="white">
                            <use xlink:href="#path-13"></use>
                        </mask>
                        <use id="Combined-Shape" fill="#DDE8F0" xlink:href="#path-13"></use>
                        <path d="M47.9492187,-9.4296875 C47.9492187,6.34635417 47.443817,22.1304934 47.9492187,37.8984375 C48.1128482,43.0034839 50.4768587,48.0090981 49.953125,53.0898437 C48.9127284,63.1827419 32.8937013,52.5417447 31.4414062,47.7382812 C24.6124981,25.1516782 91.0117187,64.5195312 65.9570313,64.5195312 C60.435071,64.5195312 85.8823629,85.7005047 80.6328125,97.75 C72.7230143,115.905665 35.1010429,109.273825 53.796875,105.949219 C80.75,101.15625 61.7369305,122.416971 92.0351562,97.75 C105.756284,86.5790933 107.997083,68.5831745 111.101562,52.1523437 C112.676861,43.8148881 110.978052,41.043876 107.574219,33.8828125 C104.298302,26.9908633 97.3380238,12.4520879 91.5117187,7.23046875 C79.8423715,-3.22776958 67.3182208,-2.38796152 53.796875,-7.546875 L47.9492187,-9.4296875 Z" id="Path-2" fill="#45546A" mask="url(#mask-14)"></path>
                    </g>
                    <text id="Axure" font-family="Montserrat-ExtraLight, Montserrat" font-size="14" font-weight="300" fill="#000000">
                        <tspan x="26.533" y="51">Axure</tspan>
                    </text>
                </g>
                <g id="Programma_M_Word" transform="translate(222.000000, 111.000000)">
                    <g id="Cirkel">
                        <mask id="mask-16" fill="white">
                            <use xlink:href="#path-15"></use>
                        </mask>
                        <use id="Combined-Shape" fill="#DDE8F0" xlink:href="#path-15"></use>
                        <path d="M47.9492187,-9.4296875 C47.9492187,6.34635417 47.443817,22.1304934 47.9492187,37.8984375 C48.1128482,43.0034839 50.4768587,48.0090981 49.953125,53.0898437 C48.9127284,63.1827419 32.8937013,52.5417447 31.4414062,47.7382812 C24.6124981,25.1516782 91.0117187,64.5195313 65.9570312,64.5195313 C60.435071,64.5195313 4.64759725,-19.5963703 -0.60195312,-7.546875 C-8.51175132,10.6087897 -9.9924365,113.694899 8.70339561,110.370292 C35.6565206,105.577323 61.7369305,122.416971 92.0351562,97.75 C105.756284,86.5790933 107.997083,68.5831745 111.101562,52.1523437 C112.676861,43.8148881 110.978052,41.043876 107.574219,33.8828125 C104.298302,26.9908633 97.3380238,12.4520879 91.5117187,7.23046875 C79.8423715,-3.22776958 67.3182208,-2.38796152 53.796875,-7.546875 L47.9492187,-9.4296875 Z" id="Path-2" fill="#45546A" mask="url(#mask-16)"></path>
                    </g>
                    <text id="Microsoft-Office" font-family="Montserrat-ExtraLight, Montserrat" font-size="14" font-weight="300" fill="#000000">
                        <tspan x="14.476" y="45">Microsoft</tspan>
                        <tspan x="25.823" y="63">Office</tspan>
                    </text>
                </g>
            </g>
        </g>
    </g>
</svg>